<svg xmlns="http://www.w3.org/2000/svg" viewBox="0 0 359.31 358.8"><defs><style>.cls-1{fill:#f15a24;}</style></defs><g id="Layer_2" data-name="Layer 2"><g id="Layer_1-2" data-name="Layer 1"><path class="cls-1" d="M60.31,89.7h59.8v59.8a59.8,59.8,0,0,1-59.8,59.8h0A59.8,59.8,0,0,1,.51,149.5h0A59.8,59.8,0,0,1,60.31,89.7Z"/><rect class="cls-1" x="120.11" y="89.7" width="59.8" height="119.6"/><rect class="cls-1" x="209.81" width="59.8" height="209.3"/><rect class="cls-1" x="209.81" y="239.2" width="59.8" height="119.6"/><path class="cls-1" d="M299.51,239.2h59.8V299a59.8,59.8,0,0,1-59.8,59.8h0Z"/><rect class="cls-1" x="299.51" y="89.7" width="59.8" height="119.6"/><path class="cls-1" d="M359.31,59.8h-59.8V0h0A59.8,59.8,0,0,1,359.31,59.8Z"/><path class="cls-1" d="M179.91,0V59.8H.51A59.8,59.8,0,0,1,60.31,0Z"/><path class="cls-1" d="M119.6,239.2h59.8V299H59.8A59.8,59.8,0,0,1,119.6,239.2Z"/><rect class="cls-1" x="269.61" y="269.1" width="29.9" height="59.8"/><path class="cls-1" d="M0,299H119.6a59.8,59.8,0,0,1-59.8,59.8h0A59.8,59.8,0,0,1,0,299Z"/></g></g></svg>